<svg width="424" height="24" viewBox="0 0 424 24" fill="none" xmlns="http://www.w3.org/2000/svg">
<path d="M8 5V19L19 12L8 5Z" fill="black"/>
<path d="M51 3V11H43V13H51V21H53V13H61V11H53V3H51Z" fill="black"/>
<path d="M92 2C86.489 2 82 6.489 82 12C82 17.511 86.489 22 92 22C97.511 22 102 17.511 102 12C102 6.489 97.511 2 92 2ZM92 4C96.4301 4 100 7.56988 100 12C100 16.4301 96.4301 20 92 20C87.5699 20 84 16.4301 84 12C84 7.56988 87.5699 4 92 4ZM91 7V9H93V7H91ZM91 11V17H93V11H91Z" fill="black"/>
<path d="M132 2.09961L121 12H124V21H131V15H133V21H140V12H143L132 2.09961ZM132 4.79102L138 10.1914V11V19H135V13H129V19H126V10.1914L132 4.79102Z" fill="black"/>
<path d="M169 2C165.146 2 162 5.14585 162 9C162 12.8541 165.146 16 169 16C170.748 16 172.345 15.348 173.574 14.2812L174 14.707V16L180 22L182 20L176 14H174.707L174.281 13.5742C175.348 12.345 176 10.748 176 9C176 5.14585 172.854 2 169 2ZM169 4C171.773 4 174 6.22673 174 9C174 11.7733 171.773 14 169 14C166.227 14 164 11.7733 164 9C164 6.22673 166.227 4 169 4Z" fill="black"/>
<path d="M212 2C206.489 2 202 6.489 202 12C202 17.511 206.489 22 212 22C217.511 22 222 17.511 222 12C222 6.489 217.511 2 212 2ZM212 4C216.43 4 220 7.56988 220 12C220 16.4301 216.43 20 212 20C207.57 20 204 16.4301 204 12C204 7.56988 207.57 4 212 4ZM211 7V13H208L212 17L216 13H213V7H211Z" fill="black"/>
<g clip-path="url(#clip0)">
<path d="M244 3C242.897 3 242 3.897 242 5V19C242 20.103 242.897 21 244 21H252V19H244V5H260V13.2852L262 14.4082V5C262 3.897 261.103 3 260 3H244ZM246.002 7V9H248V7H246.002ZM256 7V9H258V7H256ZM246 11V13H248V11H246ZM255.086 13C254.514 13.019 254 13.492 254 14.1445V22.8555C254 23.7255 254.913 24.2764 255.66 23.8574L263.42 19.502C264.194 19.067 264.194 17.932 263.42 17.498L255.66 13.1426C255.473 13.0378 255.277 12.9937 255.086 13ZM246 15V17H248V15H246Z" fill="black"/>
</g>
<path d="M293 5.92969L286.93 12L293 18.0703L294.5 16.5703L289.93 12L294.5 7.42969L293 5.92969Z" fill="black"/>
<path d="M331 2C330.448 2 330 2.448 330 3V11H326L332 17L338 11H334V3C334 2.448 333.552 2 333 2H331ZM322 20V22H342V20H322Z" fill="black"/>
<path d="M382 2L362 9.27148L374.729 22L382 2ZM378.656 5.34375L373.922 18.3652L370.578 15.0215L375.637 8.36328L368.979 13.4219L365.635 10.0781L378.656 5.34375Z" fill="black"/>
<path d="M411.209 0.966797L410.322 4.87109L406.707 7.9375C406.259 8.31737 406 8.87637 406 9.46289V19C406 20.0931 406.907 21 408 21H416.635C417.388 21 418.081 20.5719 418.42 19.9004L421.836 13.127C421.946 12.9123 422 12.6752 422 12.4434V10C422 8.90694 421.093 8 420 8H415.436C415.718 7.12305 416 5.98654 416 4.86328C416 3.12758 414.914 1.98986 413.945 1.50781C412.977 1.02577 412.041 1 412.041 1L411.209 0.966797ZM412.748 3.21484C412.889 3.25722 412.906 3.22479 413.055 3.29883C413.586 3.56328 414 3.85698 414 4.86328C414 6.25178 413.078 8.61133 413.078 8.61133L412.492 10H420V12.3242L416.635 19H408V9.46289L412.125 5.96289L412.748 3.21484ZM402 8V21H404V8H402Z" fill="gray"/>
<defs>
<clipPath id="clip0">
<rect width="24" height="24" fill="white" transform="translate(240)"/>
</clipPath>
</defs>
</svg>
